<svg xmlns="http://www.w3.org/2000/svg" viewBox="0 0 6.96 6.94"><defs><style>.cls-1{fill:#1400a2;}</style></defs><title>D-searchAsset 2</title><g id="Layer_2" data-name="Layer 2"><g id="Layer_1-2" data-name="Layer 1"><path class="cls-1" d="M7,6.41a.55.55,0,0,1-.53.53.49.49,0,0,1-.38-.16L4.61,5.36a2.9,2.9,0,0,1-2.81.28A2.9,2.9,0,0,1,.86,5a3.23,3.23,0,0,1-.63-.94,2.94,2.94,0,0,1,0-2.28A3,3,0,0,1,.86.86,2.93,2.93,0,0,1,1.8.23,3,3,0,0,1,3,0,3,3,0,0,1,4.09.23,2.93,2.93,0,0,1,5,.86a3,3,0,0,1,.63.94,2.94,2.94,0,0,1,.23,1.14A2.82,2.82,0,0,1,5.37,4.6L6.81,6A.54.54,0,0,1,7,6.41ZM4.27,4.26a1.8,1.8,0,0,0,.55-1.32,1.77,1.77,0,0,0-.55-1.32A1.8,1.8,0,0,0,3,1.07a1.8,1.8,0,0,0-1.33.55,1.77,1.77,0,0,0-.55,1.32,1.8,1.8,0,0,0,.55,1.32,1.87,1.87,0,0,0,2.65,0Z"/></g></g></svg>